<?xml version="1.0" encoding="iso-8859-1"?>
<!-- Generator: Adobe Illustrator 19.0.0, SVG Export Plug-In . SVG Version: 6.00 Build 0)  -->
<svg version="1.1" id="Capa_1" xmlns="http://www.w3.org/2000/svg" xmlns:xlink="http://www.w3.org/1999/xlink" x="0px" y="0px"
	 viewBox="0 0 512.001 512.001" style="enable-background:new 0 0 512.001 512.001;" xml:space="preserve">
<g>
	<g>
		<path d="M247.778,0.554c-32.856-2.591-64.818,3.947-92.429,18.89c-29.342,15.877-53.711,42.62-70.474,77.337
			c-28.012,58.015-35.604,133.759-21.377,213.284c8.467,47.326,24.953,87.457,49,119.276c1.479,1.958,3.729,2.988,6.006,2.987
			c1.58,0,3.172-0.496,4.53-1.521c3.314-2.505,3.971-7.221,1.466-10.535c-22.606-29.913-38.148-67.884-46.194-112.858
			c-13.674-76.429-6.53-148.91,20.115-204.094c15.38-31.853,37.541-56.283,64.087-70.648c25.056-13.558,54.139-19.478,84.091-17.123
			c4.144,0.319,7.762-2.766,8.088-6.908C255.012,4.501,251.919,0.879,247.778,0.554z"/>
	</g>
</g>
<g>
	<g>
		<path d="M454.429,410.146c-3.957-10.586-16.633-13.462-28.892-16.242c-6.117-1.388-12.443-2.822-17.57-5.078
			c-18.952-8.337-19.246-24.679-17.478-50.602c0.246-3.605,0.5-7.332,0.647-10.978c0.796-19.797,3.194-40.121,5.733-61.637
			c6.788-57.534,13.807-117.026-10.319-170.101c-3.287-7.23-7.038-14.23-11.15-20.803c-16.497-26.368-41.201-47.21-71.445-60.273
			c-0.797-0.344-1.597-0.682-2.399-1.014c-3.838-1.591-8.237,0.236-9.826,4.074c-1.588,3.838,0.236,8.237,4.074,9.825
			c0.732,0.303,1.46,0.611,2.186,0.924c27.429,11.848,49.787,30.673,64.657,54.441c3.761,6.012,7.196,12.422,10.209,19.05
			c22.39,49.255,15.62,106.629,9.073,162.114c-2.461,20.854-5.005,42.417-5.825,62.795c-0.138,3.436-0.374,6.896-0.624,10.56
			c-1.586,23.258-3.561,52.204,26.428,65.395c6.449,2.837,13.491,4.433,20.3,5.978c7.181,1.63,17.016,3.859,18.129,6.84
			c0.153,0.409,1.243,4.343-7.482,16.25c-24.274,33.126-73.171,53.077-110.835,60.704c-60.103,12.168-117.603-0.456-161.911-35.554
			c-3.256-2.581-7.985-2.03-10.565,1.225c-2.58,3.256-2.031,7.986,1.225,10.566c24.124,19.109,51.547,32.1,81.509,38.612
			c14.676,3.19,29.765,4.784,45.169,4.784c15.571,0,31.464-1.63,47.559-4.89c40.424-8.185,93.172-29.967,119.983-66.555
			C450.904,432.483,458.317,420.549,454.429,410.146z"/>
	</g>
</g>
<g>
	<g>
		<path d="M189.877,223.124c-13.147,0-23.845,10.697-23.845,23.845v12.506c0,13.148,10.697,23.845,23.845,23.845
			c13.148,0,23.844-10.697,23.844-23.845v-12.506C213.721,233.821,203.024,223.124,189.877,223.124z M198.679,259.475
			c0,4.854-3.949,8.803-8.802,8.803s-8.802-3.949-8.802-8.803v-12.506c0-4.854,3.949-8.803,8.802-8.803s8.802,3.949,8.802,8.803
			V259.475z"/>
	</g>
</g>
<g>
	<g>
		<path d="M161.629,171.725c-4.154,0-7.521,3.367-7.521,7.521v8.452c0,7.882-4.927,14.541-10.76,14.541
			c-5.832,0-10.76-6.659-10.76-14.541v-8.452c0-4.154-3.367-7.521-7.521-7.521c-4.154,0-7.521,3.367-7.521,7.521v8.452
			c0,16.313,11.575,29.583,25.802,29.583c14.227,0,25.802-13.27,25.802-29.583v-8.452
			C169.15,175.092,165.783,171.725,161.629,171.725z"/>
	</g>
</g>
<g>
	<g>
		<path d="M250.106,171.725c-4.154,0-7.521,3.367-7.521,7.521v8.452c0,7.882-4.927,14.541-10.76,14.541s-10.76-6.659-10.76-14.541
			v-8.452c0-4.154-3.367-7.521-7.521-7.521s-7.521,3.367-7.521,7.521v8.452c0,16.313,11.575,29.583,25.802,29.583
			c14.228,0,25.802-13.271,25.802-29.583v-8.452C257.626,175.092,254.26,171.725,250.106,171.725z"/>
	</g>
</g>
<g>
</g>
<g>
</g>
<g>
</g>
<g>
</g>
<g>
</g>
<g>
</g>
<g>
</g>
<g>
</g>
<g>
</g>
<g>
</g>
<g>
</g>
<g>
</g>
<g>
</g>
<g>
</g>
<g>
</g>
</svg>
