<?xml version="1.0" encoding="iso-8859-1"?>
<!-- Generator: Adobe Illustrator 19.0.0, SVG Export Plug-In . SVG Version: 6.00 Build 0)  -->
<svg version="1.1" id="Layer_1" xmlns="http://www.w3.org/2000/svg" xmlns:xlink="http://www.w3.org/1999/xlink" x="0px" y="0px"
	 viewBox="0 0 512 512" style="enable-background:new 0 0 512 512;" xml:space="preserve">
<path style="fill:#E7ECED;" d="M379.041,190.937c15.618,0,28.278-12.66,28.278-28.29c0-15.618-12.66-28.278-28.278-28.278
	c-15.63,0-28.29,12.66-28.29,28.278C350.752,178.277,363.412,190.937,379.041,190.937z M226.294,162.648
	c0,15.63,12.66,28.29,28.278,28.29c15.63,0,28.29-12.66,28.29-28.29c0-15.618-12.66-28.278-28.29-28.278
	C238.954,134.37,226.294,147.03,226.294,162.648z M503.5,490.777H101.836l28.278-45.256V123.047
	c0-56.239,45.596-101.824,101.836-101.824h169.715c56.239,0,101.836,45.585,101.836,101.824L503.5,490.777L503.5,490.777z"/>
<g>
	<path style="fill:#AFB6BB;" d="M379.041,134.37c15.618,0,28.278,12.66,28.278,28.278c0,15.63-12.66,28.29-28.278,28.29
		c-15.63,0-28.29-12.66-28.29-28.29C350.752,147.03,363.412,134.37,379.041,134.37z"/>
	<path style="fill:#AFB6BB;" d="M254.572,134.37c15.63,0,28.29,12.66,28.29,28.278c0,15.63-12.66,28.29-28.29,28.29
		c-15.618,0-28.278-12.66-28.278-28.29C226.294,147.03,238.954,134.37,254.572,134.37z"/>
</g>
<path d="M512,499.278H86.501l35.111-56.195V123.047c0-60.834,49.497-110.325,110.336-110.325h169.715
	c60.84,0,110.336,49.492,110.336,110.325v376.231H512z M117.17,482.277h377.829v-359.23c0-51.46-41.87-93.324-93.335-93.324H231.949
	c-51.465,0-93.335,41.865-93.335,93.324v324.91L117.17,482.277z"/>
<path d="M254.572,199.438c-20.28,0-36.779-16.505-36.779-36.79c0-20.28,16.499-36.779,36.779-36.779
	c20.286,0,36.79,16.499,36.79,36.779C291.362,182.935,274.857,199.438,254.572,199.438z M254.572,142.87
	c-10.906,0-19.778,8.872-19.778,19.778c0,10.911,8.872,19.789,19.778,19.789c10.911,0,19.789-8.878,19.789-19.789
	C274.361,151.742,265.483,142.87,254.572,142.87z"/>
<path d="M379.041,199.438c-20.286,0-36.79-16.505-36.79-36.79c0-20.28,16.505-36.779,36.79-36.779
	c20.28,0,36.779,16.499,36.779,36.779C415.82,182.935,399.321,199.438,379.041,199.438z M379.041,142.87
	c-10.911,0-19.789,8.872-19.789,19.778c0,10.911,8.878,19.789,19.789,19.789c10.906,0,19.778-8.878,19.778-19.789
	C398.819,151.742,389.947,142.87,379.041,142.87z"/>
<polygon points="252.63,365.404 215.73,339.315 225.546,325.433 252.637,344.588 284.675,321.968 316.717,344.592 348.764,321.973 
	380.876,344.598 408.078,325.426 417.873,339.323 380.877,365.396 348.773,342.776 316.715,365.402 284.675,342.781 "/>
<rect x="45.256" y="482.271" width="22.634" height="17.001"/>
<rect y="482.271" width="22.634" height="17.001"/>
<g>
</g>
<g>
</g>
<g>
</g>
<g>
</g>
<g>
</g>
<g>
</g>
<g>
</g>
<g>
</g>
<g>
</g>
<g>
</g>
<g>
</g>
<g>
</g>
<g>
</g>
<g>
</g>
<g>
</g>
</svg>
